<?xml version="1.0" encoding="UTF-8"?>
<svg width="256px" height="16px" viewBox="0 0 256 16" version="1.1" xmlns="http://www.w3.org/2000/svg" xmlns:xlink="http://www.w3.org/1999/xlink">
    <!-- Generator: Sketch 61.2 (89653) - https://sketch.com -->
    <title>THEPHANTOM</title>
    <desc>Created with Sketch.</desc>
    <g id="Page-1" stroke="none" stroke-width="1" fill="none" fill-rule="evenodd">
        <g id="phantom_controller" transform="translate(-589.000000, -61.000000)" fill="#FFFFFF" fill-rule="nonzero">
            <g id="menu" transform="translate(262.000000, 59.000000)">
                <path d="M337.906364,17 L337.906364,6.02 L344.706364,6.02 L344.706364,3 L327.506364,3 L327.506364,6.02 L334.306364,6.02 L334.306364,17 L337.906364,17 Z M356.759091,17 L356.759091,11.52 L368.159091,11.52 L368.159091,17 L371.759091,17 L371.759091,3 L368.159091,3 L368.159091,8.48 L356.759091,8.48 L356.759091,3 L353.159091,3 L353.159091,17 L356.759091,17 Z M395.431818,17 L395.431818,14.14 L384.231818,14.14 L384.231818,11.3 L395.431818,11.3 L395.431818,8.7 L384.231818,8.7 L384.231818,5.86 L395.431818,5.86 L395.431818,3 L380.631818,3 L380.631818,17 L395.431818,17 Z M407.604545,17 L407.604545,13.26 L415.004545,13.26 C418.184545,13.26 420.364545,11.26 420.364545,8.14 C420.364545,5.02 418.184545,3 415.004545,3 L404.004545,3 L404.004545,17 L407.604545,17 Z M414.220458,10.2394361 L407.604545,10.24 L407.604545,6.02 L414.004545,6.02 C415.084545,6.02 416.764545,6.02 416.764545,8.14 C416.764545,10.1045161 415.294327,10.2312591 414.220458,10.2394361 Z M432.537273,17 L432.537273,11.52 L443.937273,11.52 L443.937273,17 L447.537273,17 L447.537273,3 L443.937273,3 L443.937273,8.48 L432.537273,8.48 L432.537273,3 L428.937273,3 L428.937273,17 L432.537273,17 Z M459.63,17 L461.13,14.02 L469.51,14.02 L471.01,17 L474.99,17 L467.75,3 L462.89,3 L455.67,17 L459.63,17 Z M468.17,11.34 L462.47,11.34 L465.33,5.66 L468.17,11.34 Z M486.722727,17 L486.722727,6.5 L496.262727,17 L501.162727,17 L501.162727,3 L497.562727,3 L497.562727,13.52 L488.002727,3 L483.122727,3 L483.122727,17 L486.722727,17 Z M520.015455,17 L520.015455,6.02 L526.815455,6.02 L526.815455,3 L509.615455,3 L509.615455,6.02 L516.415455,6.02 L516.415455,17 L520.015455,17 Z M543.208182,17.2 C549.348182,17.2 552.008182,14.62 552.008182,9.98 C552.008182,5.36 549.348182,2.8 543.208182,2.8 C537.048182,2.8 534.408182,5.34 534.408182,9.98 C534.408182,14.64 537.048182,17.2 543.208182,17.2 Z M543.208182,14.18 C539.468182,14.18 538.008182,12.86 538.008182,9.98 C538.008182,7.12 539.448182,5.82 543.208182,5.82 C546.968182,5.82 548.408182,7.14 548.408182,9.98 C548.408182,12.84 546.948182,14.18 543.208182,14.18 Z M564.180909,17 L564.180909,7.4 L570.000909,17 L572.600909,17 L578.420909,7.4 L578.420909,17 L582.020909,17 L582.020909,3 L577.160909,3 L571.300909,12.88 L565.440909,3 L560.580909,3 L560.580909,17 L564.180909,17 Z" id="THEPHANTOM"></path>
            </g>
        </g>
    </g>
</svg>